#!OML:ASF I:\Random Stuff\random\construction\7_22_03\Session 2\subj1.ASF
:FULLY-SPECIFIED
:DEGREES
1643
root -11.7634 17.7064 -6.3291 -350.699 79.7993 -380.486
lowerback 23.2814 1.57719 -4.99346
upperback 7.58293 1.37149 -0.374517
thorax -4.71744 0.834372 2.06427
lowerneck -14.6831 1.08577 0.00711149
upperneck 31.2954 2.74996 -1.12784
head 12.8974 1.25703 0.0252272
rclavicle 3.97569e-014 1.51076e-014
rhumerus -19.4751 32.0695 -79.5921
rradius 111.071
rwrist -5.9447
rhand -28.9107 30.0666
rfingers 7.12502
rthumb -2.26544 0.0988836
lclavicle 3.97569e-014 1.51076e-014
lhumerus 16.0834 -15.4291 58.4918
lradius 60.779
lwrist 0.914574
lhand -36.4478 78.6883
lfingers 7.12502
lthumb -9.54184 251.548
rfemur -40.4996 3.53334 15.2408
rtibia 18.0749
rfoot -5.12022 -9.03646
rtoes -25.8168
lfemur -46.2431 0.300601 -11.8167
ltibia 30.3967
lfoot -19.7721 2.3543
ltoes -10.0798
1644
root -11.7722 17.7028 -6.33909 -350.925 79.8007 -380.557
lowerback 23.2007 1.49228 -4.99228
upperback 7.44741 1.24168 -0.576366
thorax -4.81192 0.774319 1.87978
lowerneck -14.6498 1.20436 0.282148
upperneck 31.3175 2.94141 -1.41779
head 12.9114 1.33567 -0.105523
rclavicle -7.4743e-014 -1.07344e-014
rhumerus -19.3889 31.1189 -79.4103
rradius 112.072
rwrist -5.78957
rhand -29.8722 29.831
rfingers 7.12502
rthumb -3.19402 -0.124795
lclavicle -7.4743e-014 -1.07344e-014
lhumerus 16.02 -15.5555 58.2643
lradius 60.5046
lwrist 0.956974
lhand -36.1597 78.7804
lfingers 7.12502
lthumb -9.26392 251.443
rfemur -40.3964 3.43031 15.2926
rtibia 18.1409
rfoot -5.1847 -8.92808
rtoes -25.6253
lfemur -46.1478 0.416821 -11.9111
ltibia 30.4502
lfoot -19.7952 2.18727
ltoes -9.86426
1645
root -11.7819 17.7005 -6.34921 -350.949 79.8499 -380.44
lowerback 23.1212 1.43437 -5.00434
upperback 7.35267 1.14882 -0.765251
thorax -4.86584 0.731671 1.70738
lowerneck -14.6883 1.26393 0.407172
upperneck 31.3243 3.02751 -1.52378
head 12.9277 1.3738 -0.15461
rclavicle -1.03368e-014 -3.69739e-014
rhumerus -19.2595 29.8263 -79.2173
rradius 113.008
rwrist -5.97363
rhand -30.3387 29.6075
rfingers 7.12502
rthumb -3.64452 -0.341097
lclavicle -1.03368e-014 -3.69739e-014
lhumerus 16.0328 -15.7512 58.0837
lradius 60.293
lwrist 1.0153
lhand -36.3507 78.4647
lfingers 7.12502
lthumb -9.44821 251.767
rfemur -40.3 3.21735 15.3558
rtibia 18.2047
rfoot -5.21376 -8.75567
rtoes -25.9005
lfemur -46.1164 0.456308 -12.0262
ltibia 30.5374
lfoot -19.7823 2.07246
ltoes -9.88505
1646
root -11.7927 17.7001 -6.35709 -351.126 79.8664 -380.517
lowerback 23.0399 1.44825 -5.02093
upperback 7.28825 1.15208 -0.913742
thorax -4.89294 0.734529 1.55589
lowerneck -14.7631 1.26288 0.431427
upperneck 31.3157 3.03062 -1.55942
head 12.9413 1.37304 -0.17125
rclavicle -2.46493e-014 -2.50469e-014
rhumerus -19.0731 28.1647 -78.9556
rradius 114.033
rwrist -6.40791
rhand -30.2494 28.2763
rfingers 7.12502
rthumb -3.55835 -1.67372
lclavicle -2.46493e-014 -2.50469e-014
lhumerus 16.1548 -15.9542 58.0195
lradius 60.112
lwrist 0.932157
lhand -36.7817 78.2097
lfingers 7.12502
lthumb -9.86406 252.041
rfemur -40.2742 3.03763 15.4553
rtibia 18.3087
rfoot -5.28736 -8.57073
rtoes -26.012
lfemur -46.1344 0.558723 -12.1101
ltibia 30.6282
lfoot -19.7466 1.93585
ltoes -9.99106
1647
root -11.807 17.6963 -6.36357 -351.365 79.9066 -380.708
lowerback 22.9877 1.47772 -5.03818
upperback 7.21418 1.17387 -1.04289
thorax -4.94669 0.746619 1.42012
lowerneck -14.8939 1.23457 0.459326
upperneck 31.2872 2.99703 -1.61755
head 12.9587 1.35296 -0.202379
rclavicle -3.49861e-014 -4.37326e-014
rhumerus -18.9035 26.3217 -78.7566
rradius 114.906
rwrist -6.27047
rhand -30.3761 26.2254
rfingers 7.12502
rthumb -3.68062 -3.7226
lclavicle -3.49861e-014 -4.37326e-014
lhumerus 16.3143 -16.1109 57.9922
lradius 60.0325
lwrist 0.730008
lhand -36.967 78.1615
lfingers 7.12502
lthumb -10.0428 252.098
rfemur -40.319 2.8567 15.566
rtibia 18.411
rfoot -5.36665 -8.39004
rtoes -25.9625
lfemur -46.2057 0.767181 -12.2264
ltibia 30.7267
lfoot -19.7388 1.63562
ltoes -9.52808
1648
root -11.8237 17.6915 -6.36617 -351.479 79.987 -380.76
lowerback 23.0317 1.5112 -5.12057
upperback 7.12623 1.18057 -1.17407
thorax -5.06352 0.753073 1.32109
lowerneck -15.0352 1.20482 0.507263
upperneck 31.2901 2.95738 -1.6726
head 12.9915 1.33294 -0.236568
rclavicle -8.74653e-015 3.73715e-014
rhumerus -18.782 24.2369 -78.7067
rradius 115.669
rwrist -5.8079
rhand -29.5326 22.1814
rfingers 7.12502
rthumb -2.86603 -7.77905
lclavicle -8.74653e-015 3.73715e-014
lhumerus 16.4664 -16.2636 57.9385
lradius 60.0629
lwrist 0.51188
lhand -36.9305 78.1878
lfingers 7.12502
lthumb -10.0076 252.07
rfemur -40.3472 2.75467 15.6011
rtibia 18.5032
rfoot -5.36194 -8.32634
rtoes -25.9065
lfemur -46.2856 0.92301 -12.3406
ltibia 30.8383
lfoot -19.749 1.38572
ltoes -8.87124
1649
root -11.8413 17.6884 -6.36834 -351.797 80.0735 -381.057
lowerback 23.0892 1.55988 -5.1826
upperback 7.03024 1.21044 -1.28143
thorax -5.19775 0.770672 1.22941
lowerneck -15.0854 1.17057 0.531899
upperneck 31.2989 2.92727 -1.74167
head 13.0073 1.31433 -0.27142
rclavicle -2.38542e-015 4.77083e-015
rhumerus -18.6819 21.9396 -78.7222
rradius 116.026
rwrist -4.81862
rhand -27.866 16.6356
rfingers 7.12502
rthumb -1.25652 -13.3404
lclavicle -2.38542e-015 4.77083e-015
lhumerus 16.6013 -16.3862 57.9696
lradius 60.1468
lwrist 0.291097
lhand -36.922 78.0841
lfingers 7.12502
lthumb -9.99943 252.173
rfemur -40.4361 2.66105 15.6741
rtibia 18.6348
rfoot -5.36618 -8.28037
rtoes -25.6412
lfemur -46.4352 1.0106 -12.3685
ltibia 30.9402
lfoot -19.6943 1.27128
ltoes -8.8761
1650
root -11.8602 17.6833 -6.37281 -352.419 80.1379 -381.707
lowerback 23.1295 1.6149 -5.19109
upperback 6.93915 1.26158 -1.3789
thorax -5.31897 0.797854 1.11242
lowerneck -15.1236 1.14958 0.616583
upperneck 31.3619 2.91656 -1.84574
head 13.0452 1.30712 -0.327242
rclavicle -3.97569e-014 -2.5842e-014
rhumerus -18.3929 19.4513 -78.659
rradius 115.926
rwrist -3.9104
rhand -25.0732 10.9022
rfingers 7.12502
rthumb 1.44083 -19.0727
lclavicle -3.97569e-014 -2.5842e-014
lhumerus 16.7298 -16.4641 58.0247
lradius 60.2515
lwrist 0.111564
lhand -37.0431 77.8591
lfingers 7.12502
lthumb -10.1162 252.404
rfemur -40.5882 2.53575 15.8281
rtibia 18.7666
rfoot -5.4314 -8.18681
rtoes -25.3922
lfemur -46.6183 1.07059 -12.3156
ltibia 31.0282
lfoot -19.652 1.17818
ltoes -9.02788
1651
root -11.8778 17.6764 -6.37515 -352.944 80.1833 -382.217
lowerback 23.2539 1.68267 -5.24536
upperback 6.84727 1.31288 -1.49811
thorax -5.48334 0.826578 0.99551
lowerneck -15.1797 1.17183 0.763098
upperneck 31.5474 2.95825 -1.93611
head 13.1402 1.33201 -0.380056
rclavicle 2.06736e-014 1.98785e-015
rhumerus -18.0727 17.2834 -78.7136
rradius 115.343
rwrist -4.95928
rhand -22.5932 6.88523
rfingers 7.12502
rthumb 3.8359 -23.06
lclavicle 2.06736e-014 1.98785e-015
lhumerus 16.8732 -16.558 58.0399
lradius 60.3481
lwrist -0.0344726
lhand -37.3489 77.6449
lfingers 7.12502
lthumb -10.4112 252.633
rfemur -40.6618 2.4604 15.9431
rtibia 18.8355
rfoot -5.46095 -8.13323
rtoes -25.3583
lfemur -46.681 1.10289 -12.2613
ltibia 31.1084
lfoot -19.7455 1.07217
ltoes -8.71223
1652
root -11.8944 17.6721 -6.37808 -353.367 80.2624 -382.625
lowerback 23.4089 1.74228 -5.29633
upperback 6.76206 1.35373 -1.6091
thorax -5.6554 0.850582 0.887359
lowerneck -15.1659 1.17622 0.836377
upperneck 31.652 2.99286 -2.03344
head 13.1854 1.34524 -0.424815
rclavicle -7.95139e-016 2.38542e-015
rhumerus -17.7908 15.4767 -78.7876
rradius 114.33
rwrist -6.90525
rhand -21.188 5.14144
rfingers 7.12502
rthumb 5.19287 -24.7749
lclavicle -7.95139e-016 2.38542e-015
lhumerus 17.1117 -16.6759 58.0784
lradius 60.4247
lwrist -0.216888
lhand -37.6971 77.5358
lfingers 7.12502
lthumb -10.7471 252.759
rfemur -40.6967 2.31705 16.0618
rtibia 18.8598
rfoot -5.42985 -8.04888
rtoes -25.5676
lfemur -46.7412 1.08669 -12.2111
ltibia 31.1687
lfoot -19.8206 0.989391
ltoes -8.18846
1653
root -11.9096 17.6725 -6.38212 -353.785 80.3726 -383.049
lowerback 23.4864 1.77961 -5.35626
upperback 6.73216 1.37587 -1.69936
thorax -5.72704 0.864017 0.814564
lowerneck -15.0899 1.12272 0.820822
upperneck 31.5631 2.94944 -2.12815
head 13.1322 1.31418 -0.466194
rclavicle 4.69132e-014 1.11319e-014
rhumerus -17.5204 14.1549 -78.7791
rradius 112.947
rwrist -7.56604
rhand -20.7091 4.40198
rfingers 7.12502
rthumb 5.65522 -25.5026
lclavicle 4.69132e-014 1.11319e-014
lhumerus 17.4533 -16.7885 58.0382
lradius 60.5234
lwrist -0.33211
lhand -37.8033 77.5829
lfingers 7.12502
lthumb -10.8495 252.717
rfemur -40.7346 2.07418 16.2197
rtibia 18.8627
rfoot -5.43299 -7.89915
rtoes -25.7142
lfemur -46.8789 1.07326 -12.1872
ltibia 31.1983
lfoot -19.7746 0.938473
ltoes -8.00495
